<?xml version="1.0" encoding="utf-8"?>
<!-- Generator: Adobe Illustrator 22.1.0, SVG Export Plug-In . SVG Version: 6.00 Build 0)  -->
<svg version="1.1" id="Layer_1" xmlns="http://www.w3.org/2000/svg" xmlns:xlink="http://www.w3.org/1999/xlink" x="0px" y="0px"
	 viewBox="0 0 100 100" style="enable-background:new 0 0 100 100;" xml:space="preserve">
<style type="text/css">
	.st0{fill:#FFFFFF;}
	<!-- :hover #background_1_{fill:#8c8c8c;} -->
</style>
<g id="element">
	<path id="background_1_" d="M88,100H12c-6.6,0-12-5.4-12-12V12C0,5.4,5.4,0,12,0h76c6.6,0,12,5.4,12,12v76
		C100,94.6,94.6,100,88,100z"/>
	<g id="HS_train">
		<path class="st0" d="M38.9,51.8c0,0,6.7-6.7,8.9-8.3s5.9-5,12.6-3.8s31.1,7.7,31.1,7.7s5.6,0.3,0-1.8c-5.6-2.2-30.7-9.2-30.7-9.2
			S50,34.2,46.9,34.2s-11.5,2.3-14.2,3.5S15,46.2,9.2,52.3s-2.1,7-1.7,7.3s5.6,1.9,9,2.1S33.3,57.2,38.9,51.8z"/>
		<path class="st0" d="M92.7,50.6L50,59.2c0,0-13.7,2.6-17.1,2.6S29,61,41,53.6s13.5-7,20.4-7S90.2,48,90.2,48S96.7,48.7,92.7,50.6z
			"/>
	</g>
</g>
</svg>
