<?xml version="1.0" encoding="utf-8"?>
<!-- Generator: Adobe Illustrator 22.1.0, SVG Export Plug-In . SVG Version: 6.00 Build 0)  -->
<svg version="1.1" id="element" xmlns="http://www.w3.org/2000/svg" xmlns:xlink="http://www.w3.org/1999/xlink" x="0px" y="0px"
	 viewBox="0 0 71.8 104.5" style="enable-background:new 0 0 71.8 104.5;" xml:space="preserve">
<style type="text/css">

	.st0{fill:#FFFFFF;stroke:#000000;stroke-width:3;stroke-miterlimit:10;}
	.st1{stroke:#000000;stroke-width:3;stroke-miterlimit:10;}
	.st2{fill:none;stroke:#000000;stroke-width:3;stroke-miterlimit:10;}
	.st3{fill:#FFFFFF;}
	.st4{fill:none;stroke:#000000;stroke-width:3;stroke-linecap:round;stroke-miterlimit:10;}
	<!-- :hover .st4{stroke:#8c8c8c;}
	:hover .st0{stroke:#8c8c8c;}
	:hover .st1{stroke:#8c8c8c;fill:#8c8c8c;}
	:hover .st2{stroke:#8c8c8c;} -->
	
</style>
<g id="ship">
	<g id="ship_2_">
		<path class="st0" d="M41.8,31H30.2c-0.8,0-1.4-0.6-1.4-1.4v-15c0-0.8,0.6-1.4,1.4-1.4h11.6c0.8,0,1.4,0.6,1.4,1.4v15
			C43.2,30.4,42.6,31,41.8,31z"/>
		<polygon class="st1" points="15.7,51.2 15.7,33.8 35.9,23.6 56.4,34.1 56.4,51.2 		"/>
		<polyline class="st0" points="15.7,92.2 5.1,56.5 35.8,41 67,56.5 56.7,91.8 		"/>
		<line class="st2" x1="35.8" y1="41" x2="36.1" y2="90.8"/>
		<circle class="st3" cx="36.1" cy="34.1" r="5"/>
		<line class="st4" x1="36.1" y1="1.5" x2="36.1" y2="13.4"/>
	</g>
	<g id="water_1_">
		<path class="st4" d="M1.5,99.3c0,0,6.8,5.3,12.5,2.5s5.4-3.1,9.5-0.8s5.6,1.8,9,0s4.3-2.1,8.1,0s4.8,2.1,8.6,0s5.3-2,9.2,0.7
			c3.9,2.7,6.7,0.7,8.9-0.7c2.2-1.3,2.9-1.7,2.9-1.7"/>
		<path class="st4" d="M1.5,90.6c0,0,6.8,5.3,12.5,2.5c5.8-2.8,5.4-3.1,9.5-0.8c4.1,2.3,5.6,1.8,9,0c3.4-1.8,4.3-2.1,8.1,0
			s4.8,2.1,8.6,0c3.8-2.1,5.3-2,9.2,0.7c3.9,2.7,6.7,0.7,8.9-0.7c2.2-1.3,2.9-1.7,2.9-1.7"/>
	</g>
</g>
</svg>
