<?xml version="1.0" encoding="utf-8"?>
<!-- Generator: Adobe Illustrator 22.1.0, SVG Export Plug-In . SVG Version: 6.00 Build 0)  -->
<svg version="1.1" id="element" xmlns="http://www.w3.org/2000/svg" xmlns:xlink="http://www.w3.org/1999/xlink" x="0px" y="0px"
	 viewBox="0 0 110 116.2" style="enable-background:new 0 0 110 116.2;" xml:space="preserve">
<style type="text/css">
	.st0{fill:none;stroke:#000000;stroke-width:10;stroke-miterlimit:10;}
	.st1{fill:none;stroke:#000000;stroke-width:5;stroke-linejoin:round;stroke-miterlimit:10;}
	.st2{fill:#FFFFFF;}
	.st3{fill:none;stroke:#000000;stroke-width:8;stroke-linecap:round;stroke-miterlimit:10;}
	<!-- :hover .st0{stroke:#8c8c8c;}
	:hover .st1{stroke:#8c8c8c;}
	:hover .st3{stroke:#8c8c8c;}
	:hover #XMLID_2_{fill:#8c8c8c;} -->
</style>
<g id="metro">
	<path id="tunnel_1_" class="st0" d="M28.8,97.6C14.5,88.8,5,73,5,55C5,27.4,27.4,5,55,5s50,22.4,50,50c0,18.2-9.7,34.1-24.3,42.9"
		/>
	<g id="train_6_">
		<g id="XMLID_2_">
			<g>
				<path d="M80,55v22.9c0,3.9-3.2,7.1-7.1,7.1H37.1c-3.9,0-7.1-3.2-7.1-7.1V55H80z"/>
			</g>
			<g>
				<path class="st1" d="M80,55v22.9c0,3.9-3.2,7.1-7.1,7.1H37.1c-3.9,0-7.1-3.2-7.1-7.1V55V32.1c0-3.9,3.2-7.1,7.1-7.1h35.8
					c3.9,0,7.1,3.2,7.1,7.1V55z"/>
				<line class="st1" x1="30" y1="55" x2="80" y2="55"/>
			</g>
		</g>
		<line class="st1" x1="55" y1="25" x2="55" y2="55"/>
		<circle class="st2" cx="40.5" cy="70.1" r="5"/>
		<circle class="st2" cx="69" cy="70.1" r="5"/>
	</g>
	<g id="track_5_">
		<line class="st3" x1="35.5" y1="86.1" x2="20.5" y2="112.1"/>
		<line class="st3" x1="74" y1="86.2" x2="89" y2="112.2"/>
	</g>
</g>
</svg>
