<?xml version="1.0" encoding="utf-8"?>
<!-- Generator: Adobe Illustrator 22.1.0, SVG Export Plug-In . SVG Version: 6.00 Build 0)  -->
<svg version="1.1" id="element" xmlns="http://www.w3.org/2000/svg" xmlns:xlink="http://www.w3.org/1999/xlink" x="0px" y="0px"
	 viewBox="0 0 94.8 88.2" style="enable-background:new 0 0 94.8 88.2;" xml:space="preserve">
<style type="text/css">
	.st0{fill:#FFFFFF;}
	.st1{fill:none;stroke:#FFFFFF;stroke-width:9;stroke-linecap:round;stroke-miterlimit:10;}
	<!-- :hover #taxi{fill:#8c8c8c;} -->
</style>
<g id="taxi">
	<path id="top_1_" d="M58.7,15H36.6c-3.6,0-6.4-2.9-6.4-6.4V6.4c0-3.6,2.9-6.4,6.4-6.4l22.1,0c3.6,0,6.4,2.9,6.4,6.4v2.1
		C65.2,12.1,62.3,15,58.7,15z"/>
	<g id="car_1_">
		<path d="M25.2,8.1h45.1c0,0,7.8,1,9.2,6.9s4.6,22.8,4.6,22.8s7.5,5,7.8,12.9v9.8c0,0,2.9,1.6,2.9,5.5s0,7,0,7s-1.1,6.4-7.1,6.4H85
			v6.6c0,0-0.6,2.2-2.1,2.2s-10.3,0-10.3,0s-2.2-0.6-2.2-1.8s0-6.9,0-6.9H24.7v6.6c0,0-0.6,2.2-2.2,2.2s-10.4,0-10.4,0
			S10,87.5,10,86s0-6.6,0-6.6H8.2c0,0-8.2-0.8-8.2-8.2v-4.6c0,0,1-6.1,3.1-6.1V50.2c0,0-1.1-3.7,7.6-12.3l4.4-21.1
			C15.1,16.8,17.6,8.1,25.2,8.1z"/>
		<circle class="st0" cx="23" cy="55.1" r="6.2"/>
		<circle class="st0" cx="72.1" cy="55.1" r="6.2"/>
		<line class="st1" x1="54.9" y1="55.4" x2="40.5" y2="55.4"/>
		<path class="st0" d="M85.6,71.6H9.1c-1,0-1.7-0.8-1.7-1.7v-1.6c0-1,0.8-1.7,1.7-1.7h76.5c1,0,1.7,0.8,1.7,1.7v1.6
			C87.4,70.8,86.6,71.6,85.6,71.6z"/>
		<path class="st0" d="M30.2,15h35c0,0,3.8,1,5,4.8l3.1,13.6H21.9l2.9-13.7C24.8,19.7,27.9,15,30.2,15z"/>
	</g>
</g>
</svg>
