<?xml version="1.0" encoding="utf-8"?>
<!-- Generator: Adobe Illustrator 22.1.0, SVG Export Plug-In . SVG Version: 6.00 Build 0)  -->
<svg version="1.1" xmlns="http://www.w3.org/2000/svg" xmlns:xlink="http://www.w3.org/1999/xlink" x="0px" y="0px"
	 viewBox="0 0 80 123" style="enable-background:new 0 0 80 123;" xml:space="preserve">
<style type="text/css">
	.st0{fill:none;stroke:#000000;stroke-width:10;stroke-linecap:round;stroke-miterlimit:10;}
	.st1{fill:none;stroke:#000000;stroke-width:5;stroke-linecap:round;stroke-miterlimit:10;}
	.st2{fill:#FFFFFF;}
	<!-- :hover .st0{stroke:#8c8c8c;}
	:hover .st1{stroke:#8c8c8c;}
	:hover path{fill:#8c8c8c;} -->
</style>
<g id="background_1_">
	<g id="track_4_">
		<line class="st0" x1="25" y1="83.4" x2="5" y2="118"/>
		<line class="st0" x1="55" y1="83.4" x2="75" y2="118"/>
		<line class="st1" x1="10.4" y1="108.7" x2="69.6" y2="108.7"/>
		<line class="st1" x1="19" y1="95.8" x2="61.4" y2="95.8"/>
	</g>
</g>
<g id="element">
	<g id="train_5_">
		<path d="M77.5,40.5v42.8c0,2-1.6,3.6-3.6,3.6H6.1c-2,0-3.6-1.6-3.6-3.6V40.5L40,30.2l2.6,0.7L77.5,40.5z"/>
		<path d="M75,35V20.3V9.7C75,4.4,70.6,0,65.3,0H14.7C9.4,0,5,4.4,5,9.7v10.6V35l35-9.9L75,35z"/>
		<circle class="st2" cx="40" cy="46.9" r="7.5"/>
		<rect x="13" y="9.4" class="st2" width="24" height="12"/>
		<rect x="43.2" y="9.4" class="st2" width="24" height="12"/>
	</g>
</g>
</svg>
