<?xml version="1.0" encoding="utf-8"?>
<!-- Generator: Adobe Illustrator 22.1.0, SVG Export Plug-In . SVG Version: 6.00 Build 0)  -->
<svg version="1.1" id="element" xmlns="http://www.w3.org/2000/svg" xmlns:xlink="http://www.w3.org/1999/xlink" x="0px" y="0px"
	 viewBox="0 0 64 112.6" style="enable-background:new 0 0 64 112.6;" xml:space="preserve">
<style type="text/css">
	.st0{fill:none;stroke:#000000;stroke-width:6;stroke-linecap:round;stroke-miterlimit:10;}
	.st1{fill:#FFFFFF;}
	.st2{fill:none;stroke:#FFFFFF;stroke-width:4;stroke-linecap:round;stroke-miterlimit:10;}
	.st3{fill:none;stroke:#000000;stroke-width:4;stroke-miterlimit:10;}
	.st4{fill:none;stroke:#000000;stroke-width:3;stroke-miterlimit:10;}
	<!-- :hover .st0{stroke:#8c8c8c;}
	:hover .st3{stroke:#8c8c8c;}
	:hover .st4{stroke:#8c8c8c;}
	:hover #train_3_{fill:#8c8c8c;} -->
</style>
<g id="tram">
	<g id="track_2_">
		<line class="st0" x1="9.8" y1="96.6" x2="5.8" y2="109.6"/>
		<line class="st0" x1="58.2" y1="109.6" x2="54.2" y2="96.6"/>
	</g>
	<g id="train_3_">
		<path d="M57.2,93.2H6.8c-3.7,0-6.8-3-6.8-6.8V19c0-3.7,3-6.8,6.8-6.8h50.4c3.7,0,6.8,3,6.8,6.8v67.4C64,90.2,61,93.2,57.2,93.2z"
			/>
		<rect x="8" y="28.5" class="st1" width="47.6" height="47.6"/>
		<line class="st2" x1="21.2" y1="20.6" x2="42.5" y2="20.6"/>
		<path d="M64,86.5v6.8c0,0-3.5,8.4-31.2,8.4S0,93.2,0,93.2v-6.8H64z"/>
		<path class="st1" d="M9.2,81.6l9,1.9c0,0,1.2,0.3,1.2,1.8c0,1.5,0,2.6-1.7,2.6s-9.2,0-9.2,0S7,87.5,7,85.8s0-2.9,0-2.9
			S7.1,81.6,9.2,81.6z"/>
		<path class="st1" d="M54.5,81.6l-9,1.9c0,0-1.2,0.3-1.2,1.8c0,1.5,0,2.6,1.7,2.6s9.2,0,9.2,0s1.6-0.3,1.6-2.1s0-2.9,0-2.9
			S56.7,81.6,54.5,81.6z"/>
	</g>
	<g id="cable">
		<path class="st3" d="M9.7,7.8c0-3.2,2.6-5.8,5.8-5.8h33.5c3.2,0,5.8,2.6,5.8,5.8"/>
		<path class="st4" d="M44.2,2.4c-0.2,0.2-12,8.8-12,8.8L20,2.4H44.2z"/>
	</g>
</g>
</svg>
